<svg xmlns="http://www.w3.org/2000/svg" xmlns:xlink="http://www.w3.org/1999/xlink" width="500" zoomAndPan="magnify" viewBox="0 0 375 374.999991" height="500" preserveAspectRatio="xMidYMid meet" version="1.0"><defs><clipPath id="337ba8b90f"><path d="M 0 0 L 375 0 L 375 375 L 0 375 Z M 0 0 " clip-rule="nonzero"/></clipPath><clipPath id="13450bdc9b"><rect x="0" width="375" y="0" height="375"/></clipPath><clipPath id="6989e54aea"><path d="M 36.679688 37.5 L 338.179688 37.5 L 338.179688 339 L 36.679688 339 Z M 36.679688 37.5 " clip-rule="nonzero"/></clipPath></defs><rect x="-37.5" width="450" fill="#ffffff" y="-37.499999" height="449.999989" fill-opacity="1"/><rect x="-37.5" width="450" fill="#ffffff" y="-37.499999" height="449.999989" fill-opacity="1"/><g transform="matrix(1, 0, 0, 1, 0, 0)"><g clip-path="url(#13450bdc9b)"><g clip-path="url(#337ba8b90f)"><rect x="-82.5" width="540" fill="#ffffff" height="539.999987" y="-82.499998" fill-opacity="1"/></g></g></g><g clip-path="url(#6989e54aea)"><path fill="#000000" d="M 283.527344 37.460938 L 91.726562 37.460938 L 36.976562 92.191406 L 244.804688 92.191406 L 36.738281 300.257812 L 36.738281 338.980469 L 75.441406 338.980469 L 283.527344 130.914062 L 283.527344 338.859375 L 338.257812 284.25 L 338.257812 37.460938 Z M 283.527344 37.460938 " fill-opacity="1" fill-rule="nonzero"/></g></svg>