<svg xmlns="http://www.w3.org/2000/svg" xmlns:xlink="http://www.w3.org/1999/xlink" width="500" zoomAndPan="magnify" viewBox="0 0 375 374.999991" height="500" preserveAspectRatio="xMidYMid meet" version="1.0"><defs><clipPath id="87a6261b18"><path d="M 0 0 L 375 0 L 375 375 L 0 375 Z M 0 0 " clip-rule="nonzero"/></clipPath><clipPath id="41b154b27b"><rect x="0" width="375" y="0" height="375"/></clipPath><clipPath id="752cb3ce83"><path d="M 36.679688 37.5 L 338.179688 37.5 L 338.179688 339 L 36.679688 339 Z M 36.679688 37.5 " clip-rule="nonzero"/></clipPath></defs><rect x="-37.5" width="450" fill="#ffffff" y="-37.499999" height="449.999989" fill-opacity="1"/><rect x="-37.5" width="450" fill="#ffffff" y="-37.499999" height="449.999989" fill-opacity="1"/><g transform="matrix(1, 0, 0, 1, 0, 0)"><g clip-path="url(#41b154b27b)"><g clip-path="url(#87a6261b18)"><rect x="-82.5" width="540" fill="#000000" height="539.999987" y="-82.499998" fill-opacity="1"/></g></g></g><g clip-path="url(#752cb3ce83)"><path fill="#ffffff" d="M 283.640625 37.460938 L 91.753906 37.460938 L 36.976562 92.21875 L 244.902344 92.21875 L 36.738281 300.382812 L 36.738281 339.121094 L 75.457031 339.121094 L 283.640625 130.957031 L 283.640625 339 L 338.398438 284.363281 L 338.398438 37.460938 Z M 283.640625 37.460938 " fill-opacity="1" fill-rule="nonzero"/></g></svg>