<svg xmlns="http://www.w3.org/2000/svg" xmlns:xlink="http://www.w3.org/1999/xlink" width="500" zoomAndPan="magnify" viewBox="0 0 375 374.999991" height="500" preserveAspectRatio="xMidYMid meet" version="1.0"><rect x="-37.5" width="450" fill="#ffffff" y="-37.499999" height="449.999989" fill-opacity="1"/><rect x="-37.5" width="450" fill="#ffffff" y="-37.499999" height="449.999989" fill-opacity="1"/><path stroke-linecap="butt" transform="matrix(0.53033, -0.53033, 0.53033, 0.53033, 78.163835, 131.864655)" fill="none" stroke-linejoin="miter" d="M 0.00150965 1.000653 L 94.046717 1.000653 " stroke="#000000" stroke-width="2" stroke-opacity="1" stroke-miterlimit="4"/><path stroke-linecap="butt" transform="matrix(-0.53033, -0.53033, 0.53033, -0.53033, 152.335936, 107.352223)" fill="none" stroke-linejoin="miter" d="M 0.000621733 1.002359 L 45.822617 1.002359 " stroke="#000000" stroke-width="2" stroke-opacity="1" stroke-miterlimit="4"/><path stroke-linecap="butt" transform="matrix(0, -0.75, 0.75, 0, 152.118935, 106.820472)" fill="none" stroke-linejoin="miter" d="M 0.000212914 0.99767 L 64.323134 0.99767 " stroke="#000000" stroke-width="2" stroke-opacity="1" stroke-miterlimit="4"/><path stroke-linecap="butt" transform="matrix(-0.531939, 0.528716, -0.528716, -0.531939, 188.027702, 24.697213)" fill="none" stroke-linejoin="miter" d="M -0.00209751 1.000192 L 65.096227 1.001242 " stroke="#000000" stroke-width="2" stroke-opacity="1" stroke-miterlimit="4"/><path stroke-linecap="butt" transform="matrix(0.53033, 0.53033, -0.53033, 0.53033, 188.029226, 23.637197)" fill="none" stroke-linejoin="miter" d="M 0.00145765 0.999375 L 67.603816 0.999375 " stroke="#000000" stroke-width="2" stroke-opacity="1" stroke-miterlimit="4"/><path stroke-linecap="butt" transform="matrix(0, -0.75, 0.75, 0, 221.848012, 106.820472)" fill="none" stroke-linejoin="miter" d="M 0.000212914 0.999525 L 64.323134 0.999525 " stroke="#000000" stroke-width="2" stroke-opacity="1" stroke-miterlimit="4"/><path stroke-linecap="butt" transform="matrix(0.526288, -0.534341, 0.534341, 0.526288, 222.066801, 106.295647)" fill="none" stroke-linejoin="miter" d="M 0.00193502 0.99888 L 45.47906 0.997974 " stroke="#000000" stroke-width="2" stroke-opacity="1" stroke-miterlimit="4"/><path stroke-linecap="butt" transform="matrix(-0.527027, -0.533613, 0.533613, -0.527027, 295.254595, 132.92211)" fill="none" stroke-linejoin="miter" d="M -0.000277475 1.001328 L 93.468516 0.999127 " stroke="#000000" stroke-width="2" stroke-opacity="1" stroke-miterlimit="4"/><path stroke-linecap="butt" transform="matrix(0.518245, -0.542146, 0.542146, 0.518245, 272.354665, 155.832383)" fill="none" stroke-linejoin="miter" d="M 0.000598526 1.002428 L 44.187632 1.000075 " stroke="#000000" stroke-width="2" stroke-opacity="1" stroke-miterlimit="4"/><path stroke-linecap="butt" transform="matrix(0.75, 0, 0, 0.75, 272.898474, 155.604556)" fill="none" stroke-linejoin="miter" d="M -0.0000483729 1.001217 L 61.661414 1.001217 " stroke="#000000" stroke-width="2" stroke-opacity="1" stroke-miterlimit="4"/><path stroke-linecap="butt" transform="matrix(0.525797, 0.534825, -0.534825, 0.525797, 79.229582, 131.875979)" fill="none" stroke-linejoin="miter" d="M 0.00105955 1.000003 L 44.78978 0.99812 " stroke="#000000" stroke-width="2" stroke-opacity="1" stroke-miterlimit="4"/><path stroke-linecap="butt" transform="matrix(0.75, 0, 0, 0.75, 54.845876, 155.604556)" fill="none" stroke-linejoin="miter" d="M 0.00237354 1.001217 L 63.200294 1.001217 " stroke="#000000" stroke-width="2" stroke-opacity="1" stroke-miterlimit="4"/><path stroke-linecap="butt" transform="matrix(-0.53033, 0.53033, -0.53033, -0.53033, 55.369978, 156.887464)" fill="none" stroke-linejoin="miter" d="M -0.00175422 1.001386 L 65.619232 1.001386 " stroke="#000000" stroke-width="2" stroke-opacity="1" stroke-miterlimit="4"/><path stroke-linecap="butt" transform="matrix(-0.525775, -0.534846, 0.534846, -0.525775, 54.310955, 227.080298)" fill="none" stroke-linejoin="miter" d="M -0.00189043 1.00161 L 66.184974 0.998998 " stroke="#000000" stroke-width="2" stroke-opacity="1" stroke-miterlimit="4"/><path stroke-linecap="butt" transform="matrix(-0.75, 0, 0, -0.75, 102.236503, 227.304551)" fill="none" stroke-linejoin="miter" d="M -0.00237048 0.999819 L 63.200759 0.999819 " stroke="#000000" stroke-width="2" stroke-opacity="1" stroke-miterlimit="4"/><path stroke-linecap="butt" transform="matrix(-0.532034, 0.528621, -0.528621, -0.532034, 102.775243, 227.086727)" fill="none" stroke-linejoin="miter" d="M 0.000494405 1.000503 L 44.264878 1.001697 " stroke="#000000" stroke-width="2" stroke-opacity="1" stroke-miterlimit="4"/><path stroke-linecap="butt" transform="matrix(-0.531926, -0.528729, 0.528729, -0.531926, 128.033638, 300.058663)" fill="none" stroke-linejoin="miter" d="M -0.000696267 0.99955 L 93.765031 1.002312 " stroke="#000000" stroke-width="2" stroke-opacity="1" stroke-miterlimit="4"/><path stroke-linecap="butt" transform="matrix(0.549489, -0.510452, 0.510452, 0.549489, 128.060576, 298.979335)" fill="none" stroke-linejoin="miter" d="M 0.000643727 0.997904 L 44.224788 0.998091 " stroke="#000000" stroke-width="2" stroke-opacity="1" stroke-miterlimit="4"/><path stroke-linecap="butt" transform="matrix(0, -0.75, 0.75, 0, 152.121527, 323.679852)" fill="none" stroke-linejoin="miter" d="M 0.000219793 0.999422 L 62.302307 0.999422 " stroke="#000000" stroke-width="2" stroke-opacity="1" stroke-miterlimit="4"/><path stroke-linecap="butt" transform="matrix(-0.524442, -0.536153, 0.536153, -0.524442, 186.957297, 359.603268)" fill="none" stroke-linejoin="miter" d="M 0.00184592 0.99945 L 66.024608 0.999662 " stroke="#000000" stroke-width="2" stroke-opacity="1" stroke-miterlimit="4"/><path stroke-linecap="butt" transform="matrix(0.516928, -0.543401, 0.543401, 0.516928, 186.954837, 358.560562)" fill="none" stroke-linejoin="miter" d="M 0.00100576 1.002285 L 67.908171 0.999392 " stroke="#000000" stroke-width="2" stroke-opacity="1" stroke-miterlimit="4"/><path stroke-linecap="butt" transform="matrix(0, -0.75, 0.75, 0, 221.850619, 322.891913)" fill="none" stroke-linejoin="miter" d="M 0.0017176 1.001258 L 62.303805 1.001258 " stroke="#000000" stroke-width="2" stroke-opacity="1" stroke-miterlimit="4"/><path stroke-linecap="butt" transform="matrix(-0.536759, -0.523822, 0.523822, -0.536759, 246.010388, 300.065956)" fill="none" stroke-linejoin="miter" d="M 0.000822096 1.00265 L 44.143073 0.999707 " stroke="#000000" stroke-width="2" stroke-opacity="1" stroke-miterlimit="4"/><path stroke-linecap="butt" transform="matrix(0.534312, -0.526318, 0.526318, 0.534312, 245.481303, 298.461338)" fill="none" stroke-linejoin="miter" d="M -0.000233757 1.000601 L 93.182162 1.001788 " stroke="#000000" stroke-width="2" stroke-opacity="1" stroke-miterlimit="4"/><path stroke-linecap="butt" transform="matrix(-0.536759, -0.523822, 0.523822, -0.536759, 294.746791, 250.751264)" fill="none" stroke-linejoin="miter" d="M 0.000715499 0.998669 L 44.146604 0.999453 " stroke="#000000" stroke-width="2" stroke-opacity="1" stroke-miterlimit="4"/><path stroke-linecap="butt" transform="matrix(-0.75, 0, 0, -0.75, 319.487914, 228.054551)" fill="none" stroke-linejoin="miter" d="M -0.000489773 0.999819 L 63.202639 0.999819 " stroke="#000000" stroke-width="2" stroke-opacity="1" stroke-miterlimit="4"/><path stroke-linecap="butt" transform="matrix(0.528986, -0.531671, 0.531671, 0.528986, 318.430824, 226.548852)" fill="none" stroke-linejoin="miter" d="M -0.00173659 0.998798 L 67.571375 1.000431 " stroke="#000000" stroke-width="2" stroke-opacity="1" stroke-miterlimit="4"/><path stroke-linecap="butt" transform="matrix(0.537384, 0.523181, -0.523181, 0.537384, 319.486683, 155.81722)" fill="none" stroke-linejoin="miter" d="M 0.00208537 0.999578 L 66.51656 1.002747 " stroke="#000000" stroke-width="2" stroke-opacity="1" stroke-miterlimit="4"/></svg>