<svg xmlns="http://www.w3.org/2000/svg" xmlns:v="https://svgstorm.com"
viewBox = "0 0 500 500"
width="500"
height="500">
<g fill="None" fill-opacity="0.0" stroke="#000000" stroke-opacity="0.00" stroke-width="0.3"><path d="
M 0.00 500.00 
L 500.00 500.00
L 500.00 0.00
L 0.00 0.00
L 0.00 500.00
M 299.00 135.00 
C 307.85 127.30 315.77 118.41 324.25 110.25 C 334.72 104.24 342.42 123.24 351.25 128.75 C 359.58 137.08 367.92 145.42 376.25 153.75 C 381.64 162.65 400.66 169.91 394.75 180.75 C 386.60 189.23 377.63 197.20 370.00 206.00
C 387.00 206.00 404.00 206.00 421.00 206.00 C 434.51 205.00 440.73 221.15 450.75 228.25 C 458.24 237.76 471.46 244.72 475.00 256.00 C 468.69 265.75 458.20 273.35 450.25 282.25 C 440.65 288.74 433.92 305.53 421.93 304.07 C 404.62 303.90 387.31 304.05 370.00 304.00
C 377.70 312.85 386.59 320.77 394.75 329.25 C 400.66 340.05 381.64 347.38 376.25 356.25 C 367.92 364.58 359.58 372.92 351.25 381.25 C 342.35 386.64 335.09 405.66 324.25 399.75 C 315.77 391.60 307.80 382.63 299.00 375.00
C 299.00 392.33 299.00 409.67 299.00 427.00 C 300.55 438.93 283.68 445.68 277.25 455.25 C 267.95 463.02 260.60 475.07 249.99 479.99 C 239.38 475.02 232.04 463.02 222.75 455.25 C 216.26 445.65 199.47 438.92 200.93 426.93 C 201.10 409.62 200.95 392.31 201.00 375.00
C 192.15 383.63 181.03 392.25 174.00 402.00
C 162.61 400.18 156.41 386.57 147.25 379.75 C 139.09 371.58 130.91 363.42 122.75 355.25 C 117.85 346.91 97.55 338.54 106.25 329.25 C 114.84 320.93 122.12 312.80 130.00 304.00
C 113.00 304.00 96.00 304.00 79.00 304.00 C 66.53 306.53 59.94 289.19 50.25 282.75 C 42.17 273.67 31.37 265.90 25.03 255.97 C 28.41 244.88 41.43 238.07 48.75 228.75 C 58.69 221.65 64.98 205.97 78.00 206.00 C 95.33 206.00 112.67 206.00 130.00 206.00
C 122.46 197.40 113.43 189.14 105.77 181.23 C 98.08 171.15 117.51 163.29 122.75 154.75 C 130.91 146.58 139.09 138.42 147.25 130.25 C 156.42 123.42 162.62 109.80 174.00 108.00
C 181.33 117.60 191.69 126.30 201.00 135.00
C 201.00 118.00 201.00 101.00 201.00 84.00 C 199.89 70.69 215.78 64.58 222.75 54.75 C 232.05 46.98 239.40 34.93 250.01 30.01 C 260.46 34.82 267.62 46.65 276.75 54.25 C 283.71 64.02 299.16 70.16 299.00 83.00 C 299.00 100.33 299.00 117.67 299.00 135.00
M 499.00 338.00 
C 493.12 346.35 484.34 355.15 476.00 361.00
C 483.17 353.00 491.04 345.12 499.00 338.00
M 475.00 362.00 
C 474.86 364.33 472.39 366.94 470.00 367.00
C 471.26 365.07 473.00 363.09 475.00 362.00
M 459.00 378.00 
C 456.41 383.02 451.02 388.46 446.00 391.00
C 449.85 386.35 454.37 381.78 459.00 378.00
M 401.00 436.00 
C 399.75 441.91 395.03 438.75 401.00 436.00
M 391.00 446.00 
C 375.47 464.02 357.00 482.50 339.00 498.00
C 355.84 480.33 373.38 462.79 391.00 446.00 Z"/>
</g>
<g fill="None" fill-opacity="0.0" stroke="#000000" stroke-opacity="0.99" stroke-width="0.3"><path d="
M 299.00 135.00 
C 299.00 117.67 299.00 100.33 299.00 83.00 C 299.16 70.16 283.71 64.02 276.75 54.25 C 267.62 46.65 260.46 34.82 250.01 30.01 C 239.40 34.93 232.05 46.98 222.75 54.75 C 215.78 64.58 199.89 70.69 201.00 84.00 C 201.00 101.00 201.00 118.00 201.00 135.00
C 191.69 126.30 181.33 117.60 174.00 108.00
C 162.62 109.80 156.42 123.42 147.25 130.25 C 139.09 138.42 130.91 146.58 122.75 154.75 C 117.51 163.29 98.08 171.15 105.77 181.23 C 113.43 189.14 122.46 197.40 130.00 206.00
C 112.67 206.00 95.33 206.00 78.00 206.00 C 64.98 205.97 58.69 221.65 48.75 228.75 C 41.43 238.07 28.41 244.88 25.03 255.97 C 31.37 265.90 42.17 273.67 50.25 282.75 C 59.94 289.19 66.53 306.53 79.00 304.00 C 96.00 304.00 113.00 304.00 130.00 304.00
C 122.12 312.80 114.84 320.93 106.25 329.25 C 97.55 338.54 117.85 346.91 122.75 355.25 C 130.91 363.42 139.09 371.58 147.25 379.75 C 156.41 386.57 162.61 400.18 174.00 402.00
C 181.03 392.25 192.15 383.63 201.00 375.00
C 200.95 392.31 201.10 409.62 200.93 426.93 C 199.47 438.92 216.26 445.65 222.75 455.25 C 232.04 463.02 239.38 475.02 249.99 479.99 C 260.60 475.07 267.95 463.02 277.25 455.25 C 283.68 445.68 300.55 438.93 299.00 427.00 C 299.00 409.67 299.00 392.33 299.00 375.00
C 307.80 382.63 315.77 391.60 324.25 399.75 C 335.09 405.66 342.35 386.64 351.25 381.25 C 359.58 372.92 367.92 364.58 376.25 356.25 C 381.64 347.38 400.66 340.05 394.75 329.25 C 386.59 320.77 377.70 312.85 370.00 304.00
C 387.31 304.05 404.62 303.90 421.93 304.07 C 433.92 305.53 440.65 288.74 450.25 282.25 C 458.20 273.35 468.69 265.75 475.00 256.00 C 471.46 244.72 458.24 237.76 450.75 228.25 C 440.73 221.15 434.51 205.00 421.00 206.00 C 404.00 206.00 387.00 206.00 370.00 206.00
C 377.63 197.20 386.60 189.23 394.75 180.75 C 400.66 169.91 381.64 162.65 376.25 153.75 C 367.92 145.42 359.58 137.08 351.25 128.75 C 342.42 123.24 334.72 104.24 324.25 110.25 C 315.77 118.41 307.85 127.30 299.00 135.00
M 251.00 32.00 
C 258.86 41.02 267.93 49.10 276.25 57.75 C 283.81 67.85 300.23 74.33 297.00 89.00 C 297.00 106.33 297.00 123.67 297.00 141.00
C 307.56 131.21 318.78 120.13 328.00 110.00
C 350.83 131.34 372.21 154.71 395.00 176.00
C 385.33 187.16 373.62 196.88 364.00 208.00
C 381.00 208.00 398.00 208.00 415.00 208.00 C 429.96 204.27 436.69 220.42 446.75 228.25 C 455.56 236.73 463.87 246.03 473.00 254.00
C 459.40 271.41 440.73 286.12 426.00 303.00
C 405.83 300.68 384.58 302.66 364.00 302.00
C 373.84 312.66 384.38 323.22 395.00 333.00
C 373.66 355.83 350.29 377.21 329.00 400.00
C 317.84 390.33 308.12 378.62 297.00 369.00
C 297.66 389.58 295.68 410.87 298.00 431.00
C 281.83 446.12 266.04 462.47 251.00 478.00
C 231.83 462.63 219.50 447.32 202.00 431.00
C 205.47 412.21 201.78 390.82 203.00 369.00
C 192.56 379.22 180.49 388.96 172.00 400.00
C 149.33 378.16 126.79 355.62 105.00 333.00
C 117.02 324.75 125.41 312.32 136.00 302.00
C 115.29 301.56 92.63 302.68 74.00 303.00
C 58.83 287.00 42.95 271.12 27.00 256.00
C 38.29 241.24 53.82 228.66 66.75 214.75 C 74.35 203.82 85.11 209.89 96.00 207.00 C 109.30 207.42 122.46 208.52 136.00 208.00
C 126.41 197.25 113.56 185.25 105.00 177.00
C 123.73 154.65 149.50 135.44 168.25 111.25 C 181.95 116.34 190.67 131.64 203.00 141.00
C 202.85 123.33 203.29 106.25 203.00 89.00 C 200.57 74.24 214.28 67.48 222.75 58.75 C 232.32 50.14 240.60 38.94 251.00 32.00 Z"/>
</g>
<g fill="None" fill-opacity="0.0" stroke="#000000" stroke-opacity="0.00" stroke-width="0.3"><path d="
M 251.00 32.00 
C 240.60 38.94 232.32 50.14 222.75 58.75 C 214.28 67.48 200.57 74.24 203.00 89.00 C 203.29 106.25 202.85 123.33 203.00 141.00
C 190.67 131.64 181.95 116.34 168.25 111.25 C 149.50 135.44 123.73 154.65 105.00 177.00
C 113.56 185.25 126.41 197.25 136.00 208.00
C 122.46 208.52 109.30 207.42 96.00 207.00 C 85.11 209.89 74.35 203.82 66.75 214.75 C 53.82 228.66 38.29 241.24 27.00 256.00
C 42.95 271.12 58.83 287.00 74.00 303.00
C 92.63 302.68 115.29 301.56 136.00 302.00
C 125.41 312.32 117.02 324.75 105.00 333.00
C 126.79 355.62 149.33 378.16 172.00 400.00
C 180.49 388.96 192.56 379.22 203.00 369.00
C 201.78 390.82 205.47 412.21 202.00 431.00
C 219.50 447.32 231.83 462.63 251.00 478.00
C 266.04 462.47 281.83 446.12 298.00 431.00
C 295.68 410.87 297.66 389.58 297.00 369.00
C 308.12 378.62 317.84 390.33 329.00 400.00
C 350.29 377.21 373.66 355.83 395.00 333.00
C 384.38 323.22 373.84 312.66 364.00 302.00
C 384.58 302.66 405.83 300.68 426.00 303.00
C 440.73 286.12 459.40 271.41 473.00 254.00
C 463.87 246.03 455.56 236.73 446.75 228.25 C 436.69 220.42 429.96 204.27 415.00 208.00 C 398.00 208.00 381.00 208.00 364.00 208.00
C 373.62 196.88 385.33 187.16 395.00 176.00
C 372.21 154.71 350.83 131.34 328.00 110.00
C 318.78 120.13 307.56 131.21 297.00 141.00
C 297.00 123.67 297.00 106.33 297.00 89.00 C 300.23 74.33 283.81 67.85 276.25 57.75 C 267.93 49.10 258.86 41.02 251.00 32.00 Z"/>
</g>
<g fill="None" fill-opacity="0.0" stroke="#2C2C2C" stroke-opacity="0.00" stroke-width="0.3"><path d="
M 499.00 338.00 
C 491.04 345.12 483.17 353.00 476.00 361.00
C 484.34 355.15 493.12 346.35 499.00 338.00 Z"/>
</g>
<g fill="None" fill-opacity="0.0" stroke="#363636" stroke-opacity="0.00" stroke-width="0.3"><path d="
M 475.00 362.00 
C 473.00 363.09 471.26 365.07 470.00 367.00
C 472.39 366.94 474.86 364.33 475.00 362.00 Z"/>
</g>
<g fill="None" fill-opacity="0.0" stroke="#686868" stroke-opacity="0.00" stroke-width="0.3"><path d="
M 459.00 378.00 
C 454.37 381.78 449.85 386.35 446.00 391.00
C 451.02 388.46 456.41 383.02 459.00 378.00 Z"/>
</g>
<g fill="None" fill-opacity="0.0" stroke="#383838" stroke-opacity="0.00" stroke-width="0.3"><path d="
M 401.00 436.00 
C 395.03 438.75 399.75 441.91 401.00 436.00 Z"/>
</g>
<g fill="None" fill-opacity="0.0" stroke="#313131" stroke-opacity="0.00" stroke-width="0.3"><path d="
M 391.00 446.00 
C 373.38 462.79 355.84 480.33 339.00 498.00
C 357.00 482.50 375.47 464.02 391.00 446.00 Z"/>
</g>
<g fill="#000000" fill-opacity="0.00" stroke="None"><path d="
M 0.00 500.00 
L 500.00 500.00
L 500.00 0.00
L 0.00 0.00
L 0.00 500.00
M 299.00 135.00 
C 307.85 127.30 315.77 118.41 324.25 110.25 C 334.72 104.24 342.42 123.24 351.25 128.75 C 359.58 137.08 367.92 145.42 376.25 153.75 C 381.64 162.65 400.66 169.91 394.75 180.75 C 386.60 189.23 377.63 197.20 370.00 206.00
C 387.00 206.00 404.00 206.00 421.00 206.00 C 434.51 205.00 440.73 221.15 450.75 228.25 C 458.24 237.76 471.46 244.72 475.00 256.00 C 468.69 265.75 458.20 273.35 450.25 282.25 C 440.65 288.74 433.92 305.53 421.93 304.07 C 404.62 303.90 387.31 304.05 370.00 304.00
C 377.70 312.85 386.59 320.77 394.75 329.25 C 400.66 340.05 381.64 347.38 376.25 356.25 C 367.92 364.58 359.58 372.92 351.25 381.25 C 342.35 386.64 335.09 405.66 324.25 399.75 C 315.77 391.60 307.80 382.63 299.00 375.00
C 299.00 392.33 299.00 409.67 299.00 427.00 C 300.55 438.93 283.68 445.68 277.25 455.25 C 267.95 463.02 260.60 475.07 249.99 479.99 C 239.38 475.02 232.04 463.02 222.75 455.25 C 216.26 445.65 199.47 438.92 200.93 426.93 C 201.10 409.62 200.95 392.31 201.00 375.00
C 192.15 383.63 181.03 392.25 174.00 402.00
C 162.61 400.18 156.41 386.57 147.25 379.75 C 139.09 371.58 130.91 363.42 122.75 355.25 C 117.85 346.91 97.55 338.54 106.25 329.25 C 114.84 320.93 122.12 312.80 130.00 304.00
C 113.00 304.00 96.00 304.00 79.00 304.00 C 66.53 306.53 59.94 289.19 50.25 282.75 C 42.17 273.67 31.37 265.90 25.03 255.97 C 28.41 244.88 41.43 238.07 48.75 228.75 C 58.69 221.65 64.98 205.97 78.00 206.00 C 95.33 206.00 112.67 206.00 130.00 206.00
C 122.46 197.40 113.43 189.14 105.77 181.23 C 98.08 171.15 117.51 163.29 122.75 154.75 C 130.91 146.58 139.09 138.42 147.25 130.25 C 156.42 123.42 162.62 109.80 174.00 108.00
C 181.33 117.60 191.69 126.30 201.00 135.00
C 201.00 118.00 201.00 101.00 201.00 84.00 C 199.89 70.69 215.78 64.58 222.75 54.75 C 232.05 46.98 239.40 34.93 250.01 30.01 C 260.46 34.82 267.62 46.65 276.75 54.25 C 283.71 64.02 299.16 70.16 299.00 83.00 C 299.00 100.33 299.00 117.67 299.00 135.00
M 499.00 338.00 
C 493.12 346.35 484.34 355.15 476.00 361.00
C 483.17 353.00 491.04 345.12 499.00 338.00
M 475.00 362.00 
C 474.86 364.33 472.39 366.94 470.00 367.00
C 471.26 365.07 473.00 363.09 475.00 362.00
M 459.00 378.00 
C 456.41 383.02 451.02 388.46 446.00 391.00
C 449.85 386.35 454.37 381.78 459.00 378.00
M 401.00 436.00 
C 399.75 441.91 395.03 438.75 401.00 436.00
M 391.00 446.00 
C 375.47 464.02 357.00 482.50 339.00 498.00
C 355.84 480.33 373.38 462.79 391.00 446.00 Z"/>
</g>
<g fill="#000000" fill-opacity="0.99" stroke="None"><path d="
M 299.00 135.00 
C 299.00 117.67 299.00 100.33 299.00 83.00 C 299.16 70.16 283.71 64.02 276.75 54.25 C 267.62 46.65 260.46 34.82 250.01 30.01 C 239.40 34.93 232.05 46.98 222.75 54.75 C 215.78 64.58 199.89 70.69 201.00 84.00 C 201.00 101.00 201.00 118.00 201.00 135.00
C 191.69 126.30 181.33 117.60 174.00 108.00
C 162.62 109.80 156.42 123.42 147.25 130.25 C 139.09 138.42 130.91 146.58 122.75 154.75 C 117.51 163.29 98.08 171.15 105.77 181.23 C 113.43 189.14 122.46 197.40 130.00 206.00
C 112.67 206.00 95.33 206.00 78.00 206.00 C 64.98 205.97 58.69 221.65 48.75 228.75 C 41.43 238.07 28.41 244.88 25.03 255.97 C 31.37 265.90 42.17 273.67 50.25 282.75 C 59.94 289.19 66.53 306.53 79.00 304.00 C 96.00 304.00 113.00 304.00 130.00 304.00
C 122.12 312.80 114.84 320.93 106.25 329.25 C 97.55 338.54 117.85 346.91 122.75 355.25 C 130.91 363.42 139.09 371.58 147.25 379.75 C 156.41 386.57 162.61 400.18 174.00 402.00
C 181.03 392.25 192.15 383.63 201.00 375.00
C 200.95 392.31 201.10 409.62 200.93 426.93 C 199.47 438.92 216.26 445.65 222.75 455.25 C 232.04 463.02 239.38 475.02 249.99 479.99 C 260.60 475.07 267.95 463.02 277.25 455.25 C 283.68 445.68 300.55 438.93 299.00 427.00 C 299.00 409.67 299.00 392.33 299.00 375.00
C 307.80 382.63 315.77 391.60 324.25 399.75 C 335.09 405.66 342.35 386.64 351.25 381.25 C 359.58 372.92 367.92 364.58 376.25 356.25 C 381.64 347.38 400.66 340.05 394.75 329.25 C 386.59 320.77 377.70 312.85 370.00 304.00
C 387.31 304.05 404.62 303.90 421.93 304.07 C 433.92 305.53 440.65 288.74 450.25 282.25 C 458.20 273.35 468.69 265.75 475.00 256.00 C 471.46 244.72 458.24 237.76 450.75 228.25 C 440.73 221.15 434.51 205.00 421.00 206.00 C 404.00 206.00 387.00 206.00 370.00 206.00
C 377.63 197.20 386.60 189.23 394.75 180.75 C 400.66 169.91 381.64 162.65 376.25 153.75 C 367.92 145.42 359.58 137.08 351.25 128.75 C 342.42 123.24 334.72 104.24 324.25 110.25 C 315.77 118.41 307.85 127.30 299.00 135.00
M 251.00 32.00 
C 258.86 41.02 267.93 49.10 276.25 57.75 C 283.81 67.85 300.23 74.33 297.00 89.00 C 297.00 106.33 297.00 123.67 297.00 141.00
C 307.56 131.21 318.78 120.13 328.00 110.00
C 350.83 131.34 372.21 154.71 395.00 176.00
C 385.33 187.16 373.62 196.88 364.00 208.00
C 381.00 208.00 398.00 208.00 415.00 208.00 C 429.96 204.27 436.69 220.42 446.75 228.25 C 455.56 236.73 463.87 246.03 473.00 254.00
C 459.40 271.41 440.73 286.12 426.00 303.00
C 405.83 300.68 384.58 302.66 364.00 302.00
C 373.84 312.66 384.38 323.22 395.00 333.00
C 373.66 355.83 350.29 377.21 329.00 400.00
C 317.84 390.33 308.12 378.62 297.00 369.00
C 297.66 389.58 295.68 410.87 298.00 431.00
C 281.83 446.12 266.04 462.47 251.00 478.00
C 231.83 462.63 219.50 447.32 202.00 431.00
C 205.47 412.21 201.78 390.82 203.00 369.00
C 192.56 379.22 180.49 388.96 172.00 400.00
C 149.33 378.16 126.79 355.62 105.00 333.00
C 117.02 324.75 125.41 312.32 136.00 302.00
C 115.29 301.56 92.63 302.68 74.00 303.00
C 58.83 287.00 42.95 271.12 27.00 256.00
C 38.29 241.24 53.82 228.66 66.75 214.75 C 74.35 203.82 85.11 209.89 96.00 207.00 C 109.30 207.42 122.46 208.52 136.00 208.00
C 126.41 197.25 113.56 185.25 105.00 177.00
C 123.73 154.65 149.50 135.44 168.25 111.25 C 181.95 116.34 190.67 131.64 203.00 141.00
C 202.85 123.33 203.29 106.25 203.00 89.00 C 200.57 74.24 214.28 67.48 222.75 58.75 C 232.32 50.14 240.60 38.94 251.00 32.00 Z"/>
</g>
<g fill="#000000" fill-opacity="0.00" stroke="None"><path d="
M 251.00 32.00 
C 240.60 38.94 232.32 50.14 222.75 58.75 C 214.28 67.48 200.57 74.24 203.00 89.00 C 203.29 106.25 202.85 123.33 203.00 141.00
C 190.67 131.64 181.95 116.34 168.25 111.25 C 149.50 135.44 123.73 154.65 105.00 177.00
C 113.56 185.25 126.41 197.25 136.00 208.00
C 122.46 208.52 109.30 207.42 96.00 207.00 C 85.11 209.89 74.35 203.82 66.75 214.75 C 53.82 228.66 38.29 241.24 27.00 256.00
C 42.95 271.12 58.83 287.00 74.00 303.00
C 92.63 302.68 115.29 301.56 136.00 302.00
C 125.41 312.32 117.02 324.75 105.00 333.00
C 126.79 355.62 149.33 378.16 172.00 400.00
C 180.49 388.96 192.56 379.22 203.00 369.00
C 201.78 390.82 205.47 412.21 202.00 431.00
C 219.50 447.32 231.83 462.63 251.00 478.00
C 266.04 462.47 281.83 446.12 298.00 431.00
C 295.68 410.87 297.66 389.58 297.00 369.00
C 308.12 378.62 317.84 390.33 329.00 400.00
C 350.29 377.21 373.66 355.83 395.00 333.00
C 384.38 323.22 373.84 312.66 364.00 302.00
C 384.58 302.66 405.83 300.68 426.00 303.00
C 440.73 286.12 459.40 271.41 473.00 254.00
C 463.87 246.03 455.56 236.73 446.75 228.25 C 436.69 220.42 429.96 204.27 415.00 208.00 C 398.00 208.00 381.00 208.00 364.00 208.00
C 373.62 196.88 385.33 187.16 395.00 176.00
C 372.21 154.71 350.83 131.34 328.00 110.00
C 318.78 120.13 307.56 131.21 297.00 141.00
C 297.00 123.67 297.00 106.33 297.00 89.00 C 300.23 74.33 283.81 67.85 276.25 57.75 C 267.93 49.10 258.86 41.02 251.00 32.00 Z"/>
</g>
<g fill="#2C2C2C" fill-opacity="0.00" stroke="None"><path d="
M 499.00 338.00 
C 491.04 345.12 483.17 353.00 476.00 361.00
C 484.34 355.15 493.12 346.35 499.00 338.00 Z"/>
</g>
<g fill="#363636" fill-opacity="0.00" stroke="None"><path d="
M 475.00 362.00 
C 473.00 363.09 471.26 365.07 470.00 367.00
C 472.39 366.94 474.86 364.33 475.00 362.00 Z"/>
</g>
<g fill="#686868" fill-opacity="0.00" stroke="None"><path d="
M 459.00 378.00 
C 454.37 381.78 449.85 386.35 446.00 391.00
C 451.02 388.46 456.41 383.02 459.00 378.00 Z"/>
</g>
<g fill="#383838" fill-opacity="0.00" stroke="None"><path d="
M 401.00 436.00 
C 395.03 438.75 399.75 441.91 401.00 436.00 Z"/>
</g>
<g fill="#313131" fill-opacity="0.00" stroke="None"><path d="
M 391.00 446.00 
C 373.38 462.79 355.84 480.33 339.00 498.00
C 357.00 482.50 375.47 464.02 391.00 446.00 Z"/>
</g>
</svg>